<?xml version="1.0" standalone="no"?>
<!DOCTYPE svg PUBLIC "-//W3C//DTD SVG 1.1//EN" "http://www.w3.org/Graphics/SVG/1.1/DTD/svg11.dtd" >
<svg xmlns="http://www.w3.org/2000/svg">
<metadata>Generated by IcoMoon</metadata>
<defs>
<font id="icomoon" horiz-adv-x="1024">
<font-face units-per-em="1024" ascent="960" descent="-64" />
<missing-glyph horiz-adv-x="1024" />
<glyph unicode="&#x20;" horiz-adv-x="512" d="" />
<glyph unicode="&#xe900;" glyph-name="triangle-down" horiz-adv-x="1434" d="M12.387 960l713.91-896 713.91 896z" />
<glyph unicode="&#xe901;" glyph-name="accordion-right" horiz-adv-x="585" d="M408.99 448.191l-387.497 387.192c-28.658 28.658-28.658 74.999 0 103.353s74.999 28.353 103.658 0l439.020-438.716c27.744-27.744 28.353-72.255 2.134-100.914l-440.85-441.764c-14.329-14.329-33.231-21.341-51.829-21.341s-37.5 7.012-51.829 21.341c-28.658 28.658-28.658 74.999 0 103.353l387.192 387.497z" />
<glyph unicode="&#xe902;" glyph-name="chatbox-ellipses" d="M859.429 931.556h-694.857c-90.849-0.101-164.471-73.723-164.571-164.571v-438.857c0.101-90.849 73.723-164.471 164.571-164.571h54.857v-146.286c-0.004-14.196 8.208-27.112 21.064-33.131s28.035-4.055 38.936 5.040l209.12 174.377h370.88c90.849 0.101 164.471 73.723 164.571 164.571v438.857c-0.101 90.849-73.723 164.471-164.571 164.571zM292.571 474.413c-40.396 0-73.143 32.747-73.143 73.143s32.747 73.143 73.143 73.143c40.396 0 73.143-32.747 73.143-73.143s-32.747-73.143-73.143-73.143zM512 474.413c-40.396 0-73.143 32.747-73.143 73.143s32.747 73.143 73.143 73.143c40.396 0 73.143-32.747 73.143-73.143s-32.747-73.143-73.143-73.143zM731.429 474.413c-40.396 0-73.143 32.747-73.143 73.143s32.747 73.143 73.143 73.143c40.396 0 73.143-32.747 73.143-73.143s-32.747-73.143-73.143-73.143z" />
<glyph unicode="&#xe903;" glyph-name="medal" d="M581.424 265.763c0-38.342-31.082-69.424-69.424-69.424s-69.424 31.082-69.424 69.424c0 38.342 31.082 69.424 69.424 69.424s69.424-31.082 69.424-69.424zM173.082 960c-39.448 0.008-75.513-22.275-93.158-57.557l-67.254-134.508c-13.293-26.753-14.524-57.911-3.384-85.63h603.553c2.986-0.003 5.764 1.529 7.355 4.057l163.797 260.339c1.679 2.669 1.778 6.039 0.259 8.802s-4.417 4.485-7.57 4.497h-603.596zM1011.352 767.87l-67.254 134.508c-14.037 28.306-40.236 48.649-71.138 55.235l-173.299-275.308-96.542-154.207c-59.016 20.5-123.221 20.5-182.237 0l-50.593 80.705c-1.585 2.536-4.364 4.077-7.355 4.079h-295.376c-3.17-0.005-6.086-1.739-7.604-4.522s-1.398-6.173 0.314-8.842l179.417-279.279c-22.111-110.23 24.423-222.916 117.868-285.427s215.362-62.511 308.807 0c93.445 62.511 139.979 175.197 117.868 285.427l221.592 344.711c19.789 30.955 21.889 70.023 5.532 102.921zM521.047 127.197c-57.689-3.77-111.677 28.599-135.531 81.26s-12.583 114.592 28.297 155.471c40.879 40.879 102.81 52.151 155.471 28.297s85.031-77.843 81.26-135.531c-4.618-69.508-59.968-124.867-129.475-129.497h-0.022z" />
<glyph unicode="&#xe904;" glyph-name="question-mark" d="M512-64c-282.77 0-512 229.23-512 512s229.23 512 512 512c282.77 0 512-229.23 512-512s-229.23-512-512-512zM522.554 663.579c-90.274 0-143.719-50.975-145.291-123.284h79.719c1.796 33.235 26.274 55.242 60.182 55.242 33.46 0 60.407-20.435 60.407-48.281s-15.944-42.218-53.895-64.898c-40.646-23.804-56.814-52.547-52.996-98.807l0.674-19.312h77.923v17.74c0 28.744 13.249 45.361 52.323 68.042 41.544 24.477 63.102 55.242 63.102 99.705 0 67.144-57.937 113.853-142.147 113.853zM463.495 278.681c0-26.049 21.333-46.26 48.056-46.26s48.281 20.211 48.281 46.26c0 26.049-21.558 46.26-48.281 46.26-26.498 0-48.056-20.435-48.056-46.26z" />
<glyph unicode="&#xe905;" glyph-name="shield" d="M1021.874 778.606c-1.063 16.813-13.474 30.724-30.057 33.691-197.714 35.474-280.251 61.12-464.754 144.457-9.576 4.328-20.55 4.328-30.126 0-184.503-83.337-267.040-108.983-464.754-144.457-16.583-2.967-28.994-16.879-30.057-33.691-8.8-139.68 9.966-269.829 55.84-386.834 37.566-95.44 93.161-182.752 163.749-257.166 122.217-129.669 251.977-185.989 276.731-195.954 8.797-3.558 18.632-3.558 27.429 0 24.754 9.966 154.514 66.286 276.731 195.954 70.473 74.441 125.958 161.752 163.429 257.166 45.874 117.006 64.64 247.154 55.84 386.834zM722.446 606.926l-253.257-292.571c-6.582-7.625-16.017-12.198-26.080-12.64h-1.509c-9.571-0.002-18.762 3.748-25.6 10.446l-112.457 110.171c-14.429 14.138-14.664 37.297-0.526 51.726s37.297 14.664 51.726 0.526l84.571-82.949 227.886 263.154c13.217 15.275 36.314 16.943 51.589 3.726s16.943-36.314 3.726-51.589h-0.069z" />
<glyph unicode="&#xe906;" glyph-name="tnc" d="M511.917 816.893c1.641 2.288 3.552 4.401 5.712 6.287 22.676 19.332 47.851 35.523 74.847 48.138 83.696 40.053 200.681 59.535 357.302 60.23 14.764 0.226 29.246-4.057 41.512-12.278 20.498-13.81 32.764-36.927 32.709-61.643v-667.161c0-40.94-33.189-74.129-74.129-74.129-265.567 0.023-369.927-49.365-429.392-108.437-2.076-2.034-4.96-2.923-7.749-2.496-3.4-1.277-7.25-0.51-9.903 2.009-98.916 93.495-264.061 108.877-428.697 108.877-42.254 0-74.129 33.798-74.129 78.6v662.76c-0.045 24.665 12.182 47.738 32.617 61.55 12.26 8.241 26.741 12.548 41.512 12.347 156.621-0.695 273.606-20.27 357.302-60.23 26.998-12.637 52.166-28.86 74.824-48.23 2.137-1.859 4.032-3.941 5.662-6.194zM689.595 588.476c-0.365 5.823-4.661 10.642-10.404 11.67-68.063 12.2-96.703 21.741-158.168 49.401-6.139 2.286-9.945 2.247-15.823 0-61.465-27.691-90.105-37.185-158.168-49.401-5.743-1.028-10.039-5.847-10.404-11.67-3.046-48.341 3.434-93.358 19.273-133.827 12.951-32.999 32.138-63.195 56.512-88.936 35.341-37.525 74.527-59.433 94.733-67.724 3.831-1.563 8.123-1.563 11.954 0 21.361 8.64 59.092 29.922 94.709 67.74 24.372 25.736 43.559 55.926 56.512 88.92 15.839 40.46 22.319 85.486 19.273 133.827z" />
<glyph unicode="&#xe907;" glyph-name="search" d="M1011.737 10.114l-284.726 287.392c55.719 69.848 89.31 158.359 89.31 254.6 0 225.275-182.619 407.894-408.16 407.894s-408.16-182.886-408.16-408.16c0-225.275 182.619-407.894 408.16-407.894 97.575 0 186.885 34.124 257.266 91.176l282.86-285.526c8.531-9.064 20.261-13.596 31.725-13.596 10.93 0 21.861 3.999 30.125 11.997 17.595 16.796 18.129 44.522 1.6 62.117zM408.16 231.656c-85.578 0-166.090 33.325-226.608 93.842s-93.842 141.030-93.842 226.341c0 85.578 33.325 166.090 93.842 226.341 60.518 60.518 141.030 93.842 226.608 93.842s166.090-33.325 226.608-93.842c60.518-60.518 93.842-141.030 93.842-226.341 0-85.578-33.325-166.090-93.842-226.341-60.518-60.518-141.030-93.842-226.608-93.842z" />
<glyph unicode="&#xe908;" glyph-name="times" horiz-adv-x="1138" d="M679.34 403.022l332.572 330.251c30.234 30.023 30.234 79.415 0 109.438s-79.973 30.023-110.207 0l-332.572-330.251-332.572 330.251c-30.234 30.023-79.973 30.023-110.207 0-15.117-15.011-22.919-34.865-22.919-54.719s7.802-39.708 22.919-54.719l332.572-330.251-332.572-330.251c-15.117-15.011-22.919-34.865-22.919-54.719s7.802-39.708 22.919-54.719c30.234-30.023 79.973-30.023 110.207 0l332.572 330.251 332.572-330.251c30.234-30.023 79.973-30.023 110.207 0s30.234 79.415 0 109.438l-332.572 330.251z" />
<glyph unicode="&#xe909;" glyph-name="my-bets" d="M433.231 329.846v-29.538c0-17.445 3.49-34.076 9.81-49.231h-285.502c-87.006 0-157.538 70.532-157.538 157.538v393.846c0 87.006 70.532 157.538 157.538 157.538h393.846c87.006 0 157.538-70.532 157.538-157.538v-285.502c-15.155 6.32-31.785 9.81-49.231 9.81h-29.538v275.692c0 43.503-35.266 78.769-78.769 78.769h-393.846c-43.503 0-78.769-35.266-78.769-78.769v-393.846c0-43.503 35.266-78.769 78.769-78.769h275.692zM512 526.769c-43.503 0-78.769-35.266-78.769-78.769v-354.462c0-43.503 35.266-78.769 78.769-78.769h354.462c43.503 0 78.769 35.266 78.769 78.769v354.462c0 43.503-35.266 78.769-78.769 78.769h-354.462zM512 605.538h354.462c87.006 0 157.538-70.532 157.538-157.538v-354.462c0-87.006-70.532-157.538-157.538-157.538h-354.462c-87.006 0-157.538 70.532-157.538 157.538v354.462c0 87.006 70.532 157.538 157.538 157.538z" />
<glyph unicode="&#xe90a;" glyph-name="eye-off" d="M864 64c-0.015 0-0.033 0-0.052 0-8.819 0-16.801 3.586-22.567 9.379l-704.001 704.001c-5.449 5.727-8.801 13.492-8.801 22.041 0 17.673 14.327 32 32 32 8.548 0 16.314-3.352 22.054-8.813l703.987-703.987c5.786-5.79 9.365-13.787 9.365-22.62 0-17.668-14.318-31.992-31.984-32h-0.001zM511.32 192c-82.98 0-163 24.56-237.84 73-68.14 44-129.48 107.020-177.4 182v0.16c39.88 57.14 83.56 105.46 130.48 144.42 0.879 0.739 1.434 1.839 1.434 3.069 0 1.096-0.441 2.089-1.155 2.812v0l-39.84 39.78c-0.725 0.731-1.73 1.183-2.84 1.183-0.986 0-1.888-0.357-2.586-0.948l0.006 0.005c-49.84-42-96.1-93.52-138.16-153.84-7.17-10.179-11.46-22.836-11.46-36.495 0-12.851 3.797-24.814 10.33-34.831l-0.15 0.245c52.82-82.66 120.8-152.28 196.56-201.3 85.3-55.26 177.1-83.26 272.62-83.26 54.306 0.174 106.407 9.372 154.959 26.171l-3.359-1.011c1.592 0.552 2.715 2.039 2.715 3.788 0 1.106-0.449 2.108-1.175 2.832v0l-43.16 43.16c-1.44 1.406-3.412 2.273-5.586 2.273-0.738 0-1.452-0.1-2.13-0.287l0.056 0.013c-30.653-8.219-65.846-12.94-102.142-12.94-0.062 0-0.125 0-0.187 0h0.009zM981.68 482.8c-52.92 81.84-121.58 151.36-198.54 201.060-85.14 55.040-179.14 84.14-271.82 84.14-53.702-0.098-105.179-9.491-152.952-26.655l3.172 0.995c-1.577-0.56-2.685-2.040-2.685-3.778 0-1.111 0.453-2.117 1.185-2.842v0l43.1-43.1c1.443-1.419 3.423-2.295 5.608-2.295 0.766 0 1.507 0.108 2.208 0.309l-0.056-0.014c30.109 8.471 64.689 13.353 100.405 13.38h0.015c81.38 0 161.16-24.86 237.1-74 69.42-44.8 131.48-107.76 179.52-182 0.034-0.044 0.055-0.099 0.055-0.16s-0.021-0.116-0.055-0.161v0.001c-35.951-56.065-78.432-104.023-127.234-144.646l-1.006-0.814c-0.892-0.739-1.456-1.847-1.456-3.087 0-1.097 0.442-2.091 1.157-2.813v0l39.8-39.78c0.725-0.732 1.731-1.185 2.842-1.185 0.976 0 1.87 0.349 2.565 0.93l-0.006-0.005c53.115 44.919 98.566 96.629 135.641 154.239l1.639 2.721c6.334 9.798 10.1 21.771 10.1 34.624 0 12.983-3.842 25.069-10.451 35.182l0.151-0.247zM512 640c-0.031 0-0.067 0-0.104 0-15.117 0-29.826-1.749-43.934-5.056l1.298 0.256c-1.832-0.39-3.187-1.995-3.187-3.916 0-1.112 0.454-2.118 1.186-2.843v0l225.18-225.12c0.725-0.733 1.731-1.187 2.844-1.187 1.921 0 3.526 1.354 3.912 3.161l0.005 0.026c3.053 12.824 4.804 27.547 4.804 42.68 0 106.039-85.961 192-192 192-0.001 0-0.003 0-0.004 0v0zM331.56 492.68c-0.725 0.733-1.731 1.187-2.844 1.187-1.921 0-3.526-1.354-3.912-3.161l-0.005-0.026c-3.076-12.872-4.84-27.65-4.84-42.84 0-106.039 85.961-192 192-192 15.19 0 29.969 1.764 44.141 5.098l-1.301-0.258c1.832 0.39 3.187 1.995 3.187 3.916 0 1.112-0.454 2.118-1.186 2.843v0z" />
<glyph unicode="&#xe90b;" glyph-name="sign-in" d="M832 64h-168c-13.2 0-24 10.8-24 24v80c0 13.2 10.8 24 24 24h168c35.4 0 64 28.6 64 64v384c0 35.4-28.6 64-64 64h-168c-13.2 0-24 10.8-24 24v80c0 13.2 10.8 24 24 24h168c106 0 192-86 192-192v-384c0-106-86-192-192-192zM738 466l-336 336c-30 30-82 9-82-34v-192h-272c-26.6 0-48-21.4-48-48v-192c0-26.6 21.4-48 48-48h272v-192c0-43 52-64 82-34l336 336c18.6 18.8 18.6 49.2 0 68z" />
<glyph unicode="&#xe90c;" glyph-name="check" horiz-adv-x="1536" d="M1279.434 902.98c-4.503 4.729-11.578 7.093-18.010 7.093-7.076 0-13.508-2.364-18.010-7.093l-784.742-726.455-285.595 262.446c-5.146 4.729-11.578 7.093-18.010 7.093s-12.865-2.364-18.010-7.093l-114.495-105.215c-10.292-9.458-10.292-24.235 0-33.692l360.21-331.013c23.156-21.279 51.459-33.692 75.258-33.692 34.091 0 63.68 23.053 74.615 32.51h0.643l860.001 794.431c9.005 10.049 9.005 24.826-0.643 33.692l-113.209 106.988z" />
<glyph unicode="&#xe90d;" glyph-name="warning" d="M445.243 881.676l-435.888-795.478c-27.566-49.717 9.107-110.51 66.7-110.51h872.023c57.347 0 94.020 60.793 66.7 110.51l-436.135 795.478c-28.797 52.179-104.603 52.179-133.4 0zM555.261 551.621l-8.861-300.273h-68.915l-8.861 300.273h86.636zM511.943 87.921c-26.335 0-47.010 19.936-47.010 45.287s20.675 45.287 47.010 45.287c26.335 0 47.010-19.936 47.010-45.287s-20.675-45.287-47.010-45.287z" />
<glyph unicode="&#xe90e;" glyph-name="Info" horiz-adv-x="410" d="M40 111.542h40v288.916h-40c-22.092 0-40 17.908-40 40v95.542c0 22.092 17.908 40 40 40h224c22.092 0 40-17.908 40-40v-424.458h40c22.092 0 40-17.908 40-40v-95.542c0-22.092-17.908-40-40-40h-304c-22.092 0-40 17.908-40 40v95.542c0 22.092 17.908 40 40 40zM192 960c-79.53 0-144-64.47-144-144s64.47-144 144-144c79.53 0 144 64.47 144 144s-64.472 144-144 144z" />
<glyph unicode="&#xe90f;" glyph-name="calendar" horiz-adv-x="931" d="M736.994 409.212h-232.727v-232.727h232.727v232.727zM659.418 913.455v-77.576h-387.879v77.576h-116.364v-77.576h-58.206c-53.338 0-96.97-43.632-96.97-96.97v-659.394c0-53.338 43.632-96.97 96.97-96.97h736.994c53.338 0 96.97 43.632 96.97 96.97v659.394c0 53.338-43.632 96.97-96.97 96.97h-58.182v77.576h-116.364zM833.964 79.515h-736.994v513.939h736.994v-513.939z" />
<glyph unicode="&#xe910;" glyph-name="map" horiz-adv-x="1126" d="M1046.755 960c-5.803 0-11.723-3.651-24.469-8.552l-288.419-110.92-341.333 119.472-321.416-108.083c-11.392-2.861-19.917-14.221-19.917-28.443v-859.029c0-17.056 11.389-28.445 28.443-28.445 4.875 0 17.347 6.213 24.232 8.851l288.659 110.624 341.333-119.475 321.416 108.083c11.389 2.861 19.917 14.224 19.917 28.445v859.029c0 17.053-11.389 28.443-28.445 28.443zM733.867 49.779l-341.333 119.472v676.973l341.333-119.475v-676.971z" />
<glyph unicode="&#xe911;" glyph-name="tag" horiz-adv-x="931" d="M851.153 913.455h-383.003l-437.89-453.607c-19.344-19.344-29.741-44.732-30.224-70.12-0.725-27.323 9.43-54.646 30.224-75.44l299.1-298.858c19.344-19.344 50.293-30.224 69.637-30.224s55.129 9.43 75.923 30.224l453.607 433.779v386.871l-77.374 77.374zM677.061 739.362c0 42.798 34.577 77.374 77.374 77.374 50.051 0 88.98-47.392 74.231-99.861-7.012-24.905-26.839-44.732-51.744-51.744-52.469-14.749-99.861 24.179-99.861 74.231z" />
<glyph unicode="&#xe912;" glyph-name="refresh" horiz-adv-x="1195" d="M1083.28 377.469c0-21.063-17.075-38.138-38.138-38.138s-38.138 17.075-38.138 38.138v71.032c0 214.255-174.17 388.028-389.053 388.028-118.372 0.146-230.354-53.68-304.181-146.208-13.137-16.464-37.133-19.162-53.597-6.025s-19.162 37.133-6.025 53.597c88.321 110.694 222.287 175.086 363.851 174.912 256.923 0 465.281-207.884 465.281-464.304v-71.032zM153.981 518.65c0 21.063 17.075 38.138 38.138 38.138s38.138-17.075 38.138-38.138v-71.032c0-214.483 174.040-388.147 388.95-388.148 118.094 0.171 229.818 53.575 304.117 145.368 13.252 16.372 37.266 18.901 53.638 5.65s18.901-37.266 5.65-53.638c-88.757-109.655-222.22-173.451-363.35-173.655-257.054 0-465.281 207.777-465.281 464.423v71.032zM112.301 421.033c-14.894-14.894-39.041-14.894-53.935 0s-14.894 39.041 0 53.935l104.879 104.879c14.66 14.66 38.347 14.923 53.329 0.592l109.646-104.879c15.221-14.559 15.757-38.701 1.198-53.922s-38.701-15.757-53.922-1.198l-82.692 79.097-78.504-78.504zM1126.224 474.967c14.894 14.894 39.041 14.894 53.935 0s14.894-39.041 0-53.935l-104.879-104.879c-14.66-14.66-38.347-14.923-53.329-0.592l-109.646 104.879c-15.221 14.559-15.757 38.701-1.198 53.922s38.701 15.757 53.922 1.198l82.692-79.097 78.504 78.504z" />
<glyph unicode="&#xe913;" glyph-name="fb" horiz-adv-x="563" d="M512.5 384l28.44 185.32h-177.82v120.26c0 50.7 24.84 100.12 104.48 100.12h80.84v157.78c0 0-73.36 12.52-143.5 12.52-146.44 0-242.16-88.76-242.16-249.44v-141.24h-162.78v-185.32h162.78v-448h200.34v448h149.38z" />
<glyph unicode="&#xe914;" glyph-name="google" horiz-adv-x="1638" d="M995.363 521.344c4.891-25.845 8.381-51.691 8.381-85.216 0-292.675-196.28-500.128-491.744-500.128-282.891 0-512 229.107-512 512s229.109 512 512 512c138.304 0 253.555-50.291 342.963-134.112l-139.003-133.413c-37.72 36.323-104.075 78.931-203.96 78.931-174.624 0-317.12-144.589-317.12-323.405s142.496-323.405 317.12-323.405c202.563 0 278.701 145.987 290.573 220.728h-290.573v176.024l483.363-0.003zM1489.779 504.179v148.621h-149.336v-148.621h-148.621v-149.336h148.621v-148.621h149.336v148.621h148.621v149.336h-148.621z" />
<glyph unicode="&#xe915;" glyph-name="back" horiz-adv-x="1117" d="M1083.883 512h-837.476l358.406 358.406-92.813 89.594-512-512 512-512 89.591 89.597-355.184 358.403h837.476z" />
<glyph unicode="&#xe916;" glyph-name="pencil" d="M0 149.333v-213.333h213.333l628.605 628.611-213.331 213.328-628.608-628.605zM1006.939 729.605c22.749 22.749 22.749 56.891 0 79.64l-133.693 133.693c-22.749 22.749-56.891 22.749-79.64 0l-105.248-105.251 213.331-213.328 105.251 105.245z" />
<glyph unicode="&#xe917;" glyph-name="arrows" d="M504.359 345.622l-199.553-199.553 70.881-66.805c32.553-32.553 9.499-88.21-36.536-88.21h-241.135c-28.538 0-51.569 23.134-51.569 51.672v241.135c0 46.035 55.554 69.090 88.105 36.538l66.911-70.986 199.553 199.553c13.452 13.452 35.264 13.452 48.716 0l54.628-54.628c13.454-13.452 13.454-35.262 0-48.716zM553.077 601.028l199.553 199.553-70.881 66.805c-32.553 32.553-9.499 88.21 36.536 88.21h241.135c28.538 0 51.569-23.134 51.569-51.672v-241.135c0-46.035-55.554-69.090-88.105-36.538l-66.911 70.986-199.553-199.553c-13.452-13.452-35.264-13.452-48.716 0l-54.628 54.628c-13.454 13.452-13.454 35.262 0 48.716z" />
<glyph unicode="&#xe918;" glyph-name="divide" d="M943.27 810.152l-56.085 56.085c-30.993 30.993-81.227 30.993-112.22 0l-681.153-681.252c-30.993-30.993-30.993-81.227 0-112.22l56.085-56.085c30.993-30.993 81.227-30.993 112.22 0l681.202 681.202c30.943 31.043 30.943 81.276-0.050 112.269zM201.173 600.143c87.624 0 158.684 71.061 158.684 158.684s-71.061 158.684-158.684 158.684c-87.624 0-158.684-71.061-158.684-158.684s71.061-158.684 158.684-158.684zM835.91 282.774c-87.624 0-158.684-71.061-158.684-158.684s71.061-158.684 158.684-158.684c87.624 0 158.684 71.061 158.684 158.684s-71.061 158.684-158.684 158.684z" />
<glyph unicode="&#xe919;" glyph-name="clip" horiz-adv-x="922" d="M426.539 146.425l-0.244-0.236c-61.759-59.838-160.102-59.061-220.908 1.745s-61.583 159.15-1.745 220.908l0.247 0.255 285.849 285.849c17.544 17.544 45.988 17.544 63.532 0s17.544-45.988 0-63.532l-285.315-285.315c-25.476-26.532-25.071-68.596 0.965-94.632 26.039-26.039 68.11-26.441 94.641-0.955l374.698 374.178c37.588 36.686 52.544 90.751 39.155 141.539s-53.054 90.454-103.842 103.842c-50.788 13.389-104.853-1.567-141.539-39.155l-0.383-0.388-377.329-377.322c-57.76-56.112-80.824-138.982-60.357-216.865s81.292-138.708 159.175-159.175c77.883-20.467 160.753 2.597 216.865 60.357l0.226 0.233 352.397 352.397c17.544 17.544 45.988 17.544 63.532 0s17.544-45.988 0-63.532l-351.947-351.947c-78.691-80.828-194.79-113.082-303.91-84.407-109.229 28.704-194.534 114.009-223.237 223.237-28.675 109.12 3.578 225.219 84.407 303.91l376.462 376.462c59.285 60.594 146.554 84.686 228.54 63.073 82.079-21.638 146.182-85.74 167.819-167.819 21.615-81.992-2.482-169.267-63.085-228.552l-374.67-374.154z" />
<glyph unicode="&#xe91a;" glyph-name="paper" horiz-adv-x="811" d="M148.45 884.26c-40.157 0-72.71-32.553-72.71-72.71v-727.101c0-40.157 32.553-72.71 72.71-72.71h508.97c40.157 0 72.71 32.553 72.71 72.71v727.101c0 40.157-32.553 72.71-72.71 72.71h-508.97zM148.45 956.97h508.97c80.313 0 145.42-65.107 145.42-145.42v-727.101c0-80.313-65.107-145.42-145.42-145.42h-508.97c-80.313 0-145.42 65.107-145.42 145.42v727.101c0 80.313 65.107 145.42 145.42 145.42zM221.16 702.485c-20.078 0-36.355 16.277-36.355 36.355s16.277 36.355 36.355 36.355h363.55c20.078 0 36.355-16.277 36.355-36.355s-16.277-36.355-36.355-36.355h-363.55zM221.16 520.71c-20.078 0-36.355 16.277-36.355 36.355s16.277 36.355 36.355 36.355h363.55c20.078 0 36.355-16.277 36.355-36.355s-16.277-36.355-36.355-36.355h-363.55zM221.16 338.935c-20.078 0-36.355 16.277-36.355 36.355s16.277 36.355 36.355 36.355h181.775c20.078 0 36.355-16.277 36.355-36.355s-16.277-36.355-36.355-36.355h-181.775z" />
<glyph unicode="&#xe91b;" glyph-name="img" horiz-adv-x="1210" d="M1104.397 242.19v544.323c0 46.739-37.889 84.628-84.628 84.628h-846.281c-46.739 0-84.628-37.889-84.628-84.628v-498.154l250.836 223.021c50.236 44.6 126.523 42.339 174.005-5.132l231.296-230.863 63.241 63.241c46.377 46.47 120.535 49.91 171.062 7.895l125.097-104.33zM1104.397 131.993l-179.253 149.495c-16.827 13.992-41.546 12.845-57.035-2.675l-253.954-253.954h405.613c46.739 0 84.628 37.889 84.628 84.628v22.505zM494.473 24.86l190.683 190.683-231.265 230.831c-15.836 15.832-41.265 16.586-57.987 1.739l-307.045-272.996v-65.629c0-46.739 37.889-84.628 84.628-84.628h320.985zM1189.025 151.48v-41.992c0-93.478-75.779-169.256-169.256-169.256h-846.281c-93.478 0-169.256 75.779-169.256 169.256v84.417c-0.001 0.131-0.001 0.261 0 0.392v592.216c0 93.478 75.779 169.256 169.256 169.256h846.281c93.478 0 169.256-75.779 169.256-169.256v-634.434c0.001-0.2 0.001-0.399 0-0.598zM808.198 532.628c-70.108 0-126.942 56.834-126.942 126.942s56.834 126.942 126.942 126.942c70.108 0 126.942-56.834 126.942-126.942s-56.834-126.942-126.942-126.942zM808.198 617.256c23.369 0 42.314 18.945 42.314 42.314s-18.945 42.314-42.314 42.314c-23.369 0-42.314-18.945-42.314-42.314s18.945-42.314 42.314-42.314z" />
<glyph unicode="&#xe91c;" glyph-name="eye" horiz-adv-x="1536" d="M766.912 960c151.674 0 299.879-47.435 434.932-134.635 124.253-80.226 233.982-192.22 317.849-321.752 21.818-33.9 21.818-77.423 0.098-111.17-176.921-277.048-455.549-456.444-752.88-456.444-299.228 0-572.931 177.098-750.525 455.095-22.467 34.773-21.785 79.653 1.878 113.944 204.941 293.769 473.638 454.962 748.647 454.962zM766.912 857.6c-239.022 0-477.741-143.209-664.515-410.935l0.142-0.221c160.207-250.779 403.259-408.044 664.373-408.044 259.322 0 507.216 159.607 666.674 409.31 0.095 0.148 0.095 0.337 0.076 0.368-160.72 248.229-410.529 409.523-666.75 409.523zM768 140.8c-169.662 0-307.2 137.538-307.2 307.2s137.538 307.2 307.2 307.2c169.662 0 307.2-137.538 307.2-307.2s-137.538-307.2-307.2-307.2zM768 243.2c113.108 0 204.8 91.692 204.8 204.8s-91.692 204.8-204.8 204.8c-113.108 0-204.8-91.692-204.8-204.8s91.692-204.8 204.8-204.8z" />
<glyph unicode="&#xe91d;" glyph-name="arrow-up" horiz-adv-x="717" d="M374.463 806.518l-255.055-255.055c-18.819-18.819-49.33-18.819-68.148 0s-18.819 49.33 0 68.148l289.129 289.129c18.819 18.819 49.33 18.819 68.148 0l289.129-289.129c18.819-18.819 18.819-49.33 0-68.148s-49.33-18.819-68.148 0l-255.055 255.055zM326.275 834.51c0 26.614 22.923 48.188 51.2 48.188s51.2-21.575 51.2-48.188v-811.984c0-26.614-22.923-48.188-51.2-48.188s-51.2 21.575-51.2 48.188v811.984z" />
<glyph unicode="&#xe91e;" glyph-name="down" horiz-adv-x="1792" d="M37.49 922.51c49.472 49.472 129.364 49.982 179.464 1.53l1.556-1.53 677.49-677.491 677.49 677.491c49.472 49.472 129.364 49.982 179.464 1.53l1.556-1.53c49.472-49.472 49.982-129.364 1.53-179.464l-1.53-1.556-768-768c-49.472-49.472-129.364-49.982-179.464-1.53l-1.556 1.53-768 768c-49.987 49.987-49.987 131.032 0 181.019z" />
<glyph unicode="&#xe91f;" glyph-name="up" horiz-adv-x="1792" d="M1754.51-26.51c-49.472-49.472-129.364-49.982-179.464-1.53l-1.556 1.53-677.49 677.491-677.49-677.491c-49.472-49.472-129.364-49.982-179.464-1.53l-1.556 1.53c-49.472 49.472-49.982 129.364-1.53 179.464l1.53 1.556 768 768c49.472 49.472 129.364 49.982 179.464 1.53l1.556-1.53 768-768c49.987-49.987 49.987-131.032 0-181.019z" />
<glyph unicode="&#xe920;" glyph-name="types" horiz-adv-x="1088" d="M960 576c70.692 0 128-57.308 128-128v-384c0-70.692-57.308-128-128-128h-384c-70.692 0-128 57.308-128 128v128h192c67.479 0 122.763 52.216 127.649 118.447l0.351 9.553v256h192zM128 960h384c70.692 0 128-57.308 128-128v-384c0-70.692-57.308-128-128-128h-384c-70.692 0-128 57.308-128 128v384c0 70.692 57.308 128 128 128z" />
<glyph unicode="&#xe921;" glyph-name="key" d="M672 896c159.058 0 288-128.942 288-288s-128.942-288-288-288c-37.936 0-74.152 7.35-107.322 20.678l-84.678-84.678h-96v-128h-128v-128h-192v160l340.678 340.678c-13.328 33.17-20.678 69.386-20.678 107.322 0 159.058 128.942 288 288 288zM672 960c-194.368 0-352-157.538-352-352 0-30.614 3.89-60.704 11.596-89.894l-317.538-317.538c-8.685-8.686-14.057-20.686-14.058-33.94v0-182.628c0-26.51 21.49-48 48-48h224c26.51 0 48 21.49 48 48v80h80c26.51 0 48 21.49 48 48v80h38.628c12.73 0 24.94 5.058 33.942 14.058l61.538 61.538c29.188-7.706 59.278-11.596 89.892-11.596 194.368 0 352 157.538 352 352 0 194.368-157.538 352-352 352zM768 744c22.056 0 40-17.944 40-40s-17.944-40-40-40-40 17.944-40 40 17.944 40 40 40zM768 800c-53.020 0-96-42.98-96-96s42.98-96 96-96 96 42.98 96 96-42.98 96-96 96z" />
<glyph unicode="&#xe922;" glyph-name="instagram" d="M725.333 874.667c56.533 0 110.133-22.4 150.667-62.667s62.667-94.133 62.667-150.667v-426.667c0-56.533-22.4-110.133-62.667-150.667s-94.133-62.667-150.667-62.667h-426.667c-56.533 0-110.133 22.4-150.667 62.667s-62.667 94.133-62.667 150.667v426.667c0 56.533 22.4 110.133 62.667 150.667s94.133 62.667 150.667 62.667h426.667zM725.333 960h-426.667c-164.267 0-298.667-134.4-298.667-298.667v-426.667c0-164.267 134.4-298.667 298.667-298.667h426.667c164.267 0 298.667 134.4 298.667 298.667v426.667c0 164.267-134.4 298.667-298.667 298.667zM789.333 661.333c-35.467 0-64 28.533-64 64s28.533 64 64 64c35.2 0 64-28.533 64-64s-28.8-64-64-64zM512 618.667c94.133 0 170.667-76.533 170.667-170.667s-76.533-170.667-170.667-170.667c-94.133 0-170.667 76.533-170.667 170.667s76.533 170.667 170.667 170.667v0zM512 704c-141.333 0-256-114.667-256-256s114.667-256 256-256c141.333 0 256 114.667 256 256s-114.667 256-256 256z" />
<glyph unicode="&#xe923;" glyph-name="fb1" d="M967.467 960h-910.933c-31.2 0-56.533-25.333-56.533-56.533v-910.933c0-31.2 25.333-56.533 56.533-56.533h455.467v405.333h-122.4v149.333h122.4v110.4c0 132.267 91.733 204.267 209.867 204.267 56.533 0 117.333-4.267 131.467-6.133v-138.133h-94.133c-64.267 0-76.533-30.4-76.533-75.2v-95.2h153.067l-20-149.333h-133.067v-405.333h284.8c31.2 0 56.533 25.333 56.533 56.533v910.933c0 31.2-25.333 56.533-56.533 56.533z" />
<glyph unicode="&#xe924;" glyph-name="linkedin" d="M942.112 960h-854.623c-46.679 0-87.489-33.609-87.489-79.754v-856.49c0-46.412 40.811-87.756 87.489-87.756h854.356c46.946 0 82.156 41.611 82.156 87.756v856.49c0.265 46.145-35.211 79.754-81.889 79.754zM317.416 106.444h-146.705v456.119h146.705v-456.119zM249.132 631.915h-1.067c-46.946 0-77.353 34.942-77.353 78.687 0 44.545 31.208 78.687 79.221 78.687s77.353-33.875 78.42-78.687c0-43.745-30.408-78.687-79.221-78.687zM853.556 106.444h-146.705v249.398c0 59.749-21.339 100.56-74.419 100.56-40.544 0-64.55-27.474-75.22-54.147-4.001-9.603-5.068-22.673-5.068-36.009v-259.801h-146.705v456.119h146.705v-63.483c21.339 30.408 54.681 74.153 132.301 74.153 96.292 0 169.111-63.483 169.111-200.319v-266.469z" />
<glyph unicode="&#xe925;" glyph-name="twitter" horiz-adv-x="1280" d="M1258.8 838.667c-46.4-20.533-96-34.4-148.267-40.8 53.333 32 94.4 82.667 113.6 142.933-49.867-29.6-105.067-51.2-164-62.667-47.2 50.4-114.4 81.867-188.533 81.867-142.667 0-258.133-115.733-258.133-258.4 0-20.267 2.133-40 6.667-58.933-214.667 10.667-405.067 113.6-532.267 270.133-22.133-38.133-34.933-82.667-34.933-129.867 0-89.6 45.867-168.8 115.2-215.2-42.667 1.067-82.667 12.8-117.333 32.267v-3.2c0-125.333 89.067-229.6 207.2-253.333-21.6-5.867-44.533-9.067-68-9.067-16.533 0-32.8 1.6-48.533 4.8 32.8-102.667 128.267-177.333 241.333-179.467-88.267-69.333-199.733-110.667-320.8-110.667-20.8 0-41.333 1.333-61.6 3.733 113.867-74.133 249.6-116.8 395.2-116.8 475.467 0 735.2 393.867 735.2 735.467 0 11.2-0.267 22.4-0.8 33.333 50.4 36.533 94.133 81.867 128.8 133.867z" />
<glyph unicode="&#xe926;" glyph-name="control" horiz-adv-x="723" d="M363.452 110.148l228.528 228.072 82.929-82.929-311.536-311.536-311.431 311.527 82.924 82.924 228.587-228.058zM51.938 641.106l311.536 311.536 311.431-311.527-82.924-82.924-228.598 228.070-228.517-228.083-82.929 82.929z" />
<glyph unicode="&#xe927;" glyph-name="expand" horiz-adv-x="1418" d="M864.438 956.341l500.321-500.321-500.302-500.147-104.577 104.577 394.799 395.742-394.821 395.569 104.58 104.58zM86.803 566.154c47.94 0 86.803-38.863 86.803-86.803s-38.863-86.803-86.803-86.803c-47.94 0-86.803 38.863-86.803 86.803s38.863 86.803 86.803 86.803zM360.565 566.154c47.94 0 86.803-38.863 86.803-86.803s-38.863-86.803-86.803-86.803c-47.94 0-86.803 38.863-86.803 86.803s38.863 86.803 86.803 86.803zM634.327 566.154c47.94 0 86.803-38.863 86.803-86.803s-38.863-86.803-86.803-86.803c-47.94 0-86.803 38.863-86.803 86.803s38.863 86.803 86.803 86.803z" />
<glyph unicode="&#xe928;" glyph-name="select" horiz-adv-x="805" d="M9.731 956.397l208.995-927.9 199.257 183.578 195.22-243.421 120.137 84.14-163.805 265.398 240.657 124.453z" />
</font>
</defs>
</svg>
